<?xml version="1.0" encoding="UTF-8"?>
<svg id="Layer_1" data-name="Layer 1" xmlns="http://www.w3.org/2000/svg" viewBox="0 0 883.27 898.05">
  <defs>
    <style>
      .cls-1 {
        fill: #c1953d;
      }

      .cls-2 {
        fill: #6e1613;
      }

      .cls-3 {
        fill: #6e100e;
      }
    </style>
  </defs>
  <path class="cls-2" d="M797.26,138.07c5.31,.53,9.83,1.3,14.36,1.37,10.91,.18,21.83,.03,32.75,0,1.04,0,2.12-.29,3.11-.1,1.15,.21,2.23,.8,3.34,1.23-.9,.77-1.69,1.82-2.73,2.25-3.55,1.46-7.2,2.67-10.79,4.02-7.88,2.96-10.89,8.84-9.98,16.95,1.45,12.82,2.84,25.64,4.51,38.43,3.12,23.94,6.43,47.85,9.66,71.77,3.44,25.47,6.85,50.94,10.3,76.41,1.94,14.33,3.92,28.66,5.93,42.98,.29,2.05,.82,4.07,1.28,6.1,2.45,10.81,9.48,16.65,20.13,18.68,1.96,.37,5.14-.11,3.85,4.28-20.47-.31-41.12-3.64-62.75,.6,.92-1.69,1.24-2.79,1.96-3.49,1.33-1.3,2.95-2.31,4.35-3.55,5.57-4.91,8.53-10.78,7.43-18.5-1.69-11.84-2.98-23.73-4.62-35.58-3.17-22.88-6.46-45.74-9.7-68.61-3.41-24-6.82-48-10.24-72-.94-6.59-1.9-13.18-2.99-20.72-.84,1.72-1.34,2.65-1.75,3.61-30.33,70.38-60.65,140.76-90.96,211.15-.53,1.24-.88,2.59-1.58,3.72-.61,.98-1.61,1.72-2.43,2.57-.8-.85-1.91-1.57-2.36-2.58-4.48-10.07-8.8-20.21-13.25-30.29-26.87-60.89-53.76-121.76-80.65-182.64-.36-.82-.81-1.6-1.61-3.15-1.43,7.78-2.74,14.76-4,21.74-6.38,35.31-12.78,70.62-19.1,105.94-2.8,15.66-5.71,31.31-8.01,47.05-1.06,7.27-1.04,14.74-.99,22.11,.02,2.77,.84,5.99,2.4,8.22,8.08,11.52,16.77,22.61,27.62,31.69,8.5,7.12,18.24,11.57,29.61,11.63,.52,0,1.13-.13,1.54,.1,.65,.36,1.15,.98,1.72,1.48-.6,.47-1.18,1.3-1.8,1.34-2.9,.2-5.83,.28-8.74,.21-10.72-.26-21.47-.33-31.71-4.2-11.95-4.52-21.46-12.51-29.22-22.29-11.58-14.58-22.59-29.63-33.6-44.65-11.82-16.12-23.4-32.41-34.99-48.7-1.36-1.91-2.69-2.19-4.92-2.04-11.41,.77-22.84,1.26-34.27,1.84-.71,.04-1.42,0-2.44,0-.06,1.24-.17,2.34-.17,3.44v351.25c0,10.6,3.43,15.53,13.4,19.76,.95,.4,1.56,1.6,2.33,2.43-.94,.39-1.85,.93-2.83,1.15-4.04,.93-8.26,1.33-12.12,2.72-10.45,3.76-15.48,12.13-16.77,22.55-1.51,12.17-3.43,24.5-2.89,36.65,.95,21.57-3.15,42.14-8.54,62.73-5.03,19.21-9.51,38.56-14.25,57.85-.19,.78-.46,1.54-.92,3.07-3.24-13.43-6.31-26.11-9.37-38.79-4.34-17.99-8.7-35.98-12.99-53.98-.45-1.9-.64-3.9-.69-5.86-.38-15.3-.43-30.61-1.14-45.89-.31-6.71-1.58-13.43-3-20.01-2.94-13.69-13.58-18.93-23.86-20.53-2.15-.33-4.32-.5-6.45-.74-1.08-2.24,.54-2.74,1.94-3.46,2.47-1.28,5.17-2.31,7.28-4.05,4.12-3.42,6.15-8.02,6.1-13.47-.03-3.64,.1-7.29,.1-10.93V334.25c-6.18,0-12.08,.2-17.97-.05-6.34-.27-12.68-.77-18.97-1.56-2.45-.31-3.75,.28-5.14,2.23-17.92,25.07-35.69,50.25-54.01,75.03-7.09,9.59-15.04,18.63-23.33,27.22-10.9,11.29-24.81,16.45-40.42,16.99-6.24,.22-12.49,.34-18.74,.32-1.12,0-2.23-.96-3.35-1.48,1.07-.53,2.13-1.5,3.22-1.52,15.23-.37,26.84-7.94,36.92-18.49,3.81-3.98,7.35-8.22,11.58-12.98-1.76-.09-2.81-.25-3.85-.18-13.59,.92-27.22,1.57-40.77,2.89-24.59,2.4-49.18,4.16-73.86,1.57-29.67-3.11-57.1-11.99-80.46-31.38-20.27-16.83-32.71-38.53-39.75-63.56-7.41-26.34-9.78-53.13-3.81-79.97,11.65-52.38,42.66-87.56,94.42-103.62,22.47-6.97,45.48-8.87,68.84-7.12,27.08,2.03,53.11,8.63,78.42,18.28,3.78,1.44,7.42,3.27,11.16,4.82,1.67,.69,2.53,1.66,2.24,3.55-1.73,11.19-3.4,22.4-5.22,33.58-.15,.9-1.26,1.65-1.92,2.47-.63-.78-1.7-1.51-1.83-2.36-2.6-18.32-15.39-28.74-29.75-37.48-10.6-6.45-22.83-8.89-34.9-11.17-27.38-5.16-54.54-4.45-81.05,4.65-28.33,9.73-50.32,27.22-63.95,54.34-6.72,13.38-10.21,27.73-11.3,42.57-2.3,31.18,2.56,61.23,15.55,89.75,11.8,25.9,29.48,46.44,55.41,59.17,14.02,6.88,29.02,10.19,44.44,11.63,27.4,2.56,54.44-.1,81.2-6.19,1.56-.35,2.88-.55,2.87-2.8-.1-24.37,0-48.75-.18-73.12-.07-8.88-4.93-14.97-13.37-17.95-1.08-.38-2.26-.62-3.18-1.24-.74-.5-1.15-1.48-1.71-2.24,.81-.42,1.64-1.23,2.43-1.2,6.13,.27,12.26,1.07,18.39,1.02,13.2-.11,26.4-.62,39.6-.97,.42-.01,.86-.18,1.24-.07,1.33,.38,2.64,.84,3.96,1.27-1.14,.97-2.18,2.09-3.43,2.88-2.95,1.87-6.21,3.31-8.97,5.41-4.45,3.39-6.17,8.32-6.18,13.76-.07,24.06-.04,48.12-.03,72.18,0,.37,.08,.75,.22,2.06,18.56-27.08,36.65-53.46,54.27-79.16-6.26-6.02-12.96-11.3-18.23-17.75-14.35-17.57-19.68-37.91-15.38-60.26,4.93-25.65,25.42-43.48,52.28-46.87,14.25-1.8,28.49-1.14,42.72-.72,11.9,.36,23.71-.02,35.46-1.95,1.84-.3,3.75-.43,5.6-.29,.81,.06,2.05,.86,2.21,1.54,.16,.66-.79,1.6-1.29,2.39-.09,.15-.36,.2-.56,.26-10.61,3.23-13.56,11.33-13.56,21.31,0,32.4,.03,64.79-.05,97.19,0,2.44,.58,3.58,3.04,4.42,5.92,2.02,9.98,6.26,12.44,11.98,.9,2.09,1.54,4.29,2.42,6.79,.56-1.71,1.01-3.16,1.52-4.59,2.56-7.18,7.11-12.4,14.61-14.65,1.41-.42,2.26-.97,2.25-2.75-.11-33.43-.14-66.87-.23-100.3,0-1.86-.2-3.76-.61-5.58-1.54-6.83-5.49-11.48-12.3-13.68-1.04-.34-1.7-1.88-2.53-2.87,1.1-.51,2.25-1.54,3.31-1.46,5.18,.41,10.33,1.48,15.5,1.65,10.8,.35,21.62,.54,32.43,.34,16.77-.31,33.54-1.01,49.75,4.62,21.59,7.49,37.02,27.59,38.43,50.39,1.76,28.6-9.1,51.25-32.37,67.96-.84,.6-1.66,1.23-2.81,2.08,12.65,18.47,25.26,36.87,38.4,56.04,.84-4.5,1.56-8.19,2.21-11.89,9.04-51.32,18.09-102.65,27.07-153.98,2.04-11.68,3.87-23.39,5.65-35.11,1.62-10.67-3.11-19.13-10.27-26.27-5.44-5.43-11.98-9.34-19.85-10.4-1.61-.22-3.14-.8-2.44-2.65,.29-.76,2.03-1.42,3.09-1.38,14.04,.44,28.07,1.18,42.11,1.48,5.36,.11,10.74-.72,16.95-1.19-.66,1.2-.95,2.37-1.69,2.97-3.15,2.5-4.13,5.86-4.23,9.65-.22,8.41,2.02,16.24,5.42,23.83,20.46,45.64,40.89,91.3,61.33,136.95,6.93,15.47,13.83,30.95,20.78,46.41,1.19,2.64,2.57,5.2,4.13,8.34,.71-1.51,1.2-2.49,1.64-3.5,25.9-59.04,51.87-118.05,77.61-177.15,3.51-8.06,6.41-16.47,8.62-24.97,1.2-4.59,.71-9.74,.27-14.57-.2-2.26-2.11-4.35-3.21-6.54-.45-.89-.83-1.82-1.47-3.25l.02,.02ZM419.48,868.33c.21,.03,.41,.05,.62,.08,.25-.86,.54-1.72,.75-2.59,3.84-15.77,7.75-31.52,11.45-47.32,1.79-7.66,4.29-15.12,4.29-23.22-.1-152.18-.08-304.35-.08-456.53v-5.54c-7.92-.21-14.39,5.04-16.08,13.57-.86,4.34-.92,8.89-.92,13.35-.04,168.32-.03,336.64-.03,504.96v3.24h0Zm-19.14-535.16v5.54c0,153.33,0,306.66,.02,459.98,0,1.85,.15,3.76,.57,5.55,4.91,20.54,9.89,41.06,14.86,61.59,.18,.76,.47,1.49,.71,2.23,.16-.02,.31-.05,.47-.07v-2.67c0-168.12,0-336.24-.02-504.36,0-3.63-.07-7.28-.42-10.89-.98-10.08-7.27-16.66-16.21-16.91h.02Zm-24.58-9.4c.18-.64,.29-.84,.29-1.03,.02-36.12,.05-72.25-.03-108.37,0-.87-1.09-2.28-1.93-2.51-4.9-1.33-9.84-2.7-14.85-3.49-21.34-3.37-40.84,5.9-51.42,24.73-9.11,16.2-11.1,33.61-7.04,51.64,4.44,19.69,16.5,32.57,35.9,38.12,12.86,3.68,25.97,2.25,39.07,.92h0Zm84.99-.06c11.08,1.31,21.89,2.27,32.63,.53,17.78-2.87,31.78-11.67,38.88-28.69,9.49-22.74,7.6-45.08-5.59-65.93-7.45-11.78-18.42-19.03-32.47-21.12-10.3-1.54-20.3-.14-30.22,2.7-2.58,.74-3.3,1.96-3.3,4.58,.09,34.79,.06,69.57,.06,104.36v3.57h.01Z"/>
  <path class="cls-1" d="M329.7,170.09c24.75-1.93,49.31-3.85,73.49-5.74v-13.96c1.65,.44,2.43,.59,3.16,.86,6.92,2.56,13.86,5.09,20.74,7.75,1.51,.58,3.54,1.34,4.1,2.57,1.32,2.91,3.63,2.97,6.1,3.16,17.33,1.33,34.65,2.67,51.98,4.01,5.69,.44,11.38,.9,16.94,1.34,.21,.37,.39,.54,.39,.72,.34,7.55,.56,6.15-5.72,6.64-22.82,1.79-45.67,3.34-68.46,5.48-12.33,1.16-24.52,.22-36.75-.73-20.02-1.56-40.04-3.13-60.06-4.73-6.45-.51-6.5,1.26-5.92-7.37h0Z"/>
  <path class="cls-1" d="M431.74,54.88c-8.41-2.92-16.25-5.33-23.86-8.36-9.96-3.96-15.82-15.98-13.7-27.13C396.23,8.62,406.29,.12,417.14,0c17.91-.2,29.86,16.3,23.75,33.15-2.64,7.29-6,14.32-9.15,21.73Z"/>
  <path class="cls-1" d="M403.92,47.15c8.67,3.24,16.86,6.2,24.96,9.36,3.17,1.24,4.38,4.09,4.31,7.3-.06,2.66-.57,5.32-.93,8.47-2.91-1.02-5.4-1.88-7.88-2.76-5.17-1.85-10.35-3.68-15.51-5.58-5.32-1.97-7.05-5-6.12-10.59,.32-1.92,.72-3.82,1.17-6.2Z"/>
  <path class="cls-3" d="M432.27,141.35c-8.52-3.07-16.53-5.89-24.47-8.86-4.17-1.56-5.9-4.95-5.16-9.43,.37-2.22,.8-4.42,1.27-6.95,8.62,3.24,16.85,6.28,25.04,9.45,2.81,1.09,4.18,3.56,4.21,6.39,.03,3.04-.55,6.1-.88,9.41h0Z"/>
  <path class="cls-3" d="M403.91,81.75c8.36,3.11,16.22,6.04,24.08,8.96,3.42,1.27,5.21,3.83,5.18,7.36-.02,2.86-.6,5.72-.96,8.88-8.58-3.09-16.79-5.94-24.91-9.03-3.63-1.38-5.39-4.97-4.77-8.85,.37-2.33,.86-4.64,1.37-7.32h.01Z"/>
  <path class="cls-3" d="M403.9,64.47c6.99,2.59,13.52,5.17,20.16,7.44,8.06,2.75,10.33,4.46,8.58,14.89-.12,.71-.34,1.41-.59,2.39-.65-.1-1.32-.11-1.92-.32-7.33-2.6-14.66-5.18-21.96-7.86-4.45-1.63-6.31-5.06-5.51-9.84,.36-2.12,.77-4.22,1.23-6.7h.01Z"/>
  <path class="cls-3" d="M432.25,123.75c-8.51-3.07-16.44-5.88-24.34-8.81-4.17-1.55-6.04-5-5.31-9.41,.37-2.22,.83-4.43,1.32-7.03,8.71,3.29,17.08,6.34,25.35,9.63,2.93,1.16,3.97,3.97,3.92,6.92-.05,2.78-.58,5.55-.94,8.7h0Z"/>
  <path class="cls-1" d="M432.23,158.46c-8.84-3.21-17.05-6.07-25.16-9.2-3.38-1.31-5.13-4.84-4.61-8.38,.36-2.43,.92-4.82,1.47-7.62,5.57,2.08,10.78,4.02,15.99,5.96,2.62,.97,5.24,1.95,7.88,2.89,3.57,1.27,5.4,3.88,5.37,7.55-.02,2.76-.58,5.51-.95,8.8h.01Z"/>
</svg>