<?xml version="1.0" encoding="UTF-8"?>
<svg id="Layer_1" data-name="Layer 1" xmlns="http://www.w3.org/2000/svg" viewBox="0 0 1052.9 447.43">
  <defs>
    <style>
      .cls-1 {
        fill: #a67d2f;
      }

      .cls-2 {
        fill: #720e0b;
      }
    </style>
  </defs>
  <path class="cls-1" d="M211.61,391.52h-61.88c19.5-13.26,19.13-30.08,18.81-48.22-.99-55.08-.36-110.19-3.69-166.95-21.08,41.86-42.16,83.72-64.5,128.07-20.28-43.33-39.48-84.37-58.68-125.41-6.57,52.34,2.44,104.55-8.81,158.77,14.72,10.48-4.68,43.45,23.6,54.28H0c25.58-18.8,19.07-44.48,19-68.62-.14-45.11,.32-90.25-.91-135.33-.35-13.01-5.63-25.89-8.78-39.42h61.24c1.94,36.05,25.94,64.34,37.06,98.45,19.35-19.22,47.49-83.21,43.66-98.62h59.34c-3.1,13.2-8.93,27.17-9.23,41.26-1.17,53.91-1.26,107.87-.12,161.77,.28,13.29,6.69,26.44,10.36,39.97Z"/>
  <path class="cls-1" d="M437.69,148.23c29.96,0,64.69,.11,99.42-.04,17.56-.08,35.28-.04,43.7,19.31,7.87,18.08,2.3,35.06-8.48,49.9-5.98,8.24-15.72,13.72-21.96,21.83-3.37,4.38-5.99,13.35-3.77,17.42,25.91,47.61,51.08,95.8,80.26,141.38,12.49,19.51,33.9,33.3,50.57,49.04-30.87-.23-60.35-6.62-78.68-39.49-23.8-42.69-48.97-84.62-73.64-126.83-3.94-6.74-8.32-13.23-13.04-20.68-10.17,4.22-19.81,6.85-27.77,12.05-4.74,3.1-9.46,10.16-9.65,15.6-.81,22.61-1.31,45.43,.95,67.89,1.22,12.15,8.22,23.73,12.43,35.09h-57.55c24.03-16.41,19.52-40.19,20.21-60.14,1.63-46.93-.21-94.05-2.38-141.01-.65-14.11-7.04-27.95-10.64-41.31Zm37.76,114.91c18.86-9.79,34.05-17.89,49.46-25.55,6.83-3.4,14.11-5.89,22.83-9.46,1.39-7.82,3.69-18.84,5.25-29.97,2.77-19.82-4.13-30.7-23.65-34.05-11.13-1.91-23.51-2.69-34.07,.36-7.67,2.21-18.31,11.09-18.91,17.78-2.24,25.03-.9,50.39-.9,80.89Z"/>
  <path class="cls-1" d="M878.59,389.85c3.89-12.65,11.1-25.73,11.44-38.99,1.39-53.84,1.27-107.74,.29-161.59-.24-13.18-5.88-26.27-9.13-39.8h55.53c23.26,34.67,56.28,58.37,84.64,87.56-3.7-30.26,15.51-63.49-15.63-89.02h47.18c-3.7,12.18-10.93,25.23-11.13,38.4-1.2,76.54-1.14,153.1-.37,229.65,.1,10.14,6.64,20.21,10.58,31.38h-38.96c3.46-13.49,9.78-27.99,10.43-42.75,1.39-31.75,.88-63.7-1.03-95.43-.64-10.64-5.41-23.21-12.58-30.9-30.88-33.11-63.33-64.76-95.3-96.84-1.12-1.12-3.21-1.26-6.38-2.42-1.01,4.36-2.68,8.19-2.66,12,.41,55.56,.53,111.13,2.07,166.65,.31,11.12,6.23,22.09,9.25,32.1h-38.22Z"/>
  <path class="cls-1" d="M610.47,147.77c11.12,4.74,20.14,8.57,29.15,12.41-.22-1.36-.44-2.72-.65-4.08,11.44-2.55,22.81-6.89,34.33-7.29,29.85-1.04,59.77-.35,90.89-.35,3.85,18.13,7.87,37.06,11.9,55.99-12.67-21.93-31.3-34.02-55.84-38.54-12.78-2.35-18.22,.92-18.09,14.45,.58,60.89,.18,121.79,1.56,182.66,.22,9.59,7.79,19,11.89,28.33h-49.46c1.44-22.27,3.77-43.39,4-64.54,.57-53.12,.19-106.25,.19-158.8-25.95-11.36-43.42,11.92-67.16,14.91,2.68-12.9,4.86-23.42,7.3-35.16Z"/>
  <path class="cls-1" d="M294.06,202.57c1.37-13.85,2.75-27.7,4.24-42.74h50.2c1,11.14,.26,22.1,3.17,31.99,15.64,53.18,32.03,106.14,48.54,159.06,4.1,13.13,9.6,25.83,14.84,39.72h-56.53c20.86-25.37,8.92-48.92-3.59-72.83-2.35-4.48-1.27-10.76-1.77-16.2l-.57,.45c5.61,2.55,11.22,5.11,18.46,8.41-.3-6.09-.52-9.05-.58-12.01-.07-3.44-.02-6.89-.02-11-14.48,6.76-15.85,6.65-21.04-7.98-10.62-29.92-20.49-60.11-30.48-89.6-9.35,4.63-17.35,8.59-25.36,12.55l.5,.18Z"/>
  <path class="cls-1" d="M844.54,391.29h-58.76c19.69-11.11,19.7-28.23,19.85-45.35,.37-43.48-1.33-87.13,2.09-130.37,1.69-21.3-2.94-36.7-18.36-51.71h63.1c-16.86,12.77-18.45,29.68-18.08,47.92,.87,43.49,.1,87.03,1.57,130.5,.55,16.16,5.5,32.18,8.58,49Z"/>
  <path class="cls-1" d="M353.16,301.57c-14.67-5.73-29.28-11.61-44.02-17.15-13.07-4.9-22.82-4.5-27.38,12.44-9.73,36.22-21.93,71.79-31.12,108.13-2.91,11.51,.54,24.62,1.09,37.31h-54.1c38.08-18.53,38.31-57.87,49.64-90.51,15.55-44.81,29.13-90.31,43.46-135.54,1.41-4.46,2.24-9.11,3.34-13.68,0,0-.5-.18-.5-.18,19.98,20.21-.23,40.86-.28,62.35,26.04,3.11,47.08,13.48,59.3,37.28l.57-.45Z"/>
  <path class="cls-1" d="M183.34,37.93h17.09V112.64c-27.55,1.4-57.27,6.89-74.97-23.24-13.76-23.42-13.24-48.71,.62-71.69C140.18-5.65,163.65-.45,187.46,3.19c1.11,6.01,2.36,12.79,2.68,14.51-12.73-2.22-26.39-8.45-37.92-5.71-17.14,4.07-20.2,21.63-20.51,37.35-.42,21.05,4.61,40.78,24.23,52.22,6.04,3.53,16.07,4.96,22.04,2.32,4.44-1.96,7.17-12.01,7.33-18.55,.39-15.67-1.17-31.39-1.97-47.41Z"/>
  <path class="cls-1" d="M425.12,112.42h-14.3V8.98c11.16,0,23.95-1.14,36.42,.4,8.3,1.02,22.73,5.57,22.88,9.04,.38,8.85-5.51,18.05-9.34,26.92-.85,1.97-3.53,3.14-5.47,4.76,8.72,20.31,17.29,40.26,26.4,61.47h-12.58c-7.69-15.9-14.22-30.68-22.06-44.74-1.99-3.57-9.65-7.73-12.06-6.49-4.35,2.24-8.96,8.12-9.45,12.9-1.3,12.52-.44,25.26-.44,39.17Zm.3-53.67c10.86-6.38,19.42-9.3,24.7-15.16,4.5-4.99,5.22-13.37,7.61-20.25-7.52-2.54-15.2-7.29-22.47-6.71-3.67,.29-8.03,9.85-9.47,15.85-1.64,6.84-.38,14.37-.38,26.28Z"/>
  <path class="cls-1" d="M397.73,64.69c-7.27,13.39-12.27,28.9-22.34,39.68-16.12,17.25-42.94,13.72-57.91-4.58-16.76-20.5-16.73-56.84,.81-76.47,10.89-12.19,24.63-17.66,41.26-13.17,18.55,5.01,28.41,18.09,32.86,35.8,1.32,5.26,.91,10.94,1.3,16.43,1.35,.77,2.69,1.54,4.04,2.31Zm-13.99,3.99c-6.01-14.57-9.39-28.55-16.94-39.7-11.58-17.12-31.07-15.05-41.89,2.6-12.01,19.59-7.68,53.82,8.92,69.78,11.44,10.99,24.66,10.3,34.15-.27,7.48-8.34,10.37-20.79,15.77-32.41Z"/>
  <path class="cls-2" d="M761.35,56.15c11.21,21.29,19.98,37.92,29.54,56.06h-13.15c-8.32-14.44-15.02-27.04-22.79-38.96-2.12-3.26-8.73-7.13-10.96-6.03-4.71,2.33-10.73,7.49-11.15,11.97-1.01,10.69,.92,21.66,1.7,33.13h-16V15.35c11.14,0,24.62-1,37.86,.39,7.59,.8,20.35,4.6,20.98,8.58,1.3,8.25-3.4,17.76-6.86,26.25-1.1,2.7-6.08,3.81-9.17,5.59Zm-30.73,8.12c27.42-9.23,41.62-23.35,35.52-34.1-3.23-5.7-16.31-11.21-22.11-9.08-21.33,7.82-6.53,26.66-13.42,43.18Z"/>
  <path class="cls-2" d="M877.19,14.43c8.49-9.4,19.87-9.03,24.68,.34,3.69,7.18,2.57,22.05-2.66,27.48-10.56,10.97-9.13,18.21-1.95,29.64,7.36,11.72,11.68,25.34,18.1,39.86-5.02,.33-9.81,.65-11.1,.74-8.11-15.84-14.41-29.46-22.08-42.27-2.14-3.58-9.68-7.64-12.33-6.39-4.56,2.16-9.51,7.99-10.21,12.87-1.52,10.65-.47,21.66-.47,33.04-3.74,.58-9.07,1.4-12.25,1.89,0-22.16-.39-44.86,.21-67.53,.2-7.72,1.97-15.72,4.65-23,4.99-13.53,13.81-16.38,25.41-6.67-12.25-4.33-18.82-.83-18.49,13,.26,10.73,.05,21.46,.05,32.2,2.02,1.02,4.05,2.05,6.07,3.07,9.04-8.27,19.69-15.38,26.71-25.11,8.62-11.94,1.86-21.56-14.35-23.16Z"/>
  <path class="cls-1" d="M288.81,90.27c-1.37,18.02-10.69,25.14-28.97,22.87-12.02-1.49-24.38-.28-36.99-.28V16.8h56.35c1.68,7,3.44,14.35,5.15,21.46-9.32-5.09-17.16-11.08-25.99-13.56-5.24-1.47-13.39,1.01-17.65,4.7-2.8,2.43-2.87,13.8-.88,14.83,5.26,2.73,12.31,2.27,18.66,2.51,2.05,.08,4.17-1.62,7.65-3.09,.8,7.08,1.45,12.87,1.93,17.07-9.34-2.41-18.2-4.7-29.77-7.69,0,13.69-.05,23.98,.01,34.27,.11,17.15,7.98,23.79,24.44,18.21,9.41-3.2,17.54-10.12,26.06-15.25Z"/>
  <path class="cls-1" d="M558.38,22.79c-31.53-16.2-54.02-5.54-56.94,27.71-2.05,23.38,8.02,45.06,24.83,53.44,17.33,8.64,27.47,3.28,28.31-15.63,.61-13.84,.12-27.74,.12-43.37,1.53-.09,6.48-.37,11.91-.68V113.21c-7.18,0-14.41-.25-21.61,.04-51.37,2.07-62.58-40.49-54.22-74.62,6.41-26.14,33.31-38.58,58.07-27.88,4.14,1.79,6.4,7.92,9.53,12.04Z"/>
  <path class="cls-1" d="M608.1,101.1c-4.01,4.24-8.02,8.47-13.1,13.83V19.32c16.62-.75,34.57-1.57,53.5-2.43,1.05,7.06,1.81,12.09,2.07,13.82-12.47-2.19-24.93-5.59-37.39-5.57-2.6,0-5.18,12.66-9.24,23.38,13.3-1.03,21.87-1.7,30.99-2.4,.91,4.21,2.04,9.45,3.1,14.38-9.32-2.22-18.69-4.46-30.18-7.2v48.23l.25-.45Z"/>
  <path class="cls-1" d="M607.85,101.55c17.51,9.86,27.15,7.75,47.93-10.5,1.28,.95,2.56,1.89,3.85,2.84-5.06,6.16-10.24,17.57-15.14,17.45-12.31-.31-29.96,12.12-36.42-10.16,.04-.07-.21,.38-.21,.38Z"/>
</svg>